<?xml version="1.0" encoding="UTF-8"?>
<svg id="Layer_2" data-name="Layer 2" xmlns="http://www.w3.org/2000/svg" viewBox="0 0 3999.99 656.42">
  <defs>
    <style>
      .cls-1 {
        fill: #151217;
        stroke-width: 0px;
      }
    </style>
  </defs>
  <g id="_ÎÓÈ_1" data-name="—ÎÓÈ_1">
    <path class="cls-1" d="M3883.23,475.57v-44.14l-9.26-9.26h-20.65v-20.65h-27.06v12.82h-55.54v68.35h-64.79v-48.1h18.51v-12.42h-68.11v-87.58h138.6v-13.29h-51.24l-107.54-88.5v-12.57h-12.34v-4.42h-5.93v-8.43h-9.73v8.43h-5.7v4.42h-10.44v5.97l-31.9,31.8-30.62-25.2v-12.57h-12.34v-4.42h-5.93v-8.43h-9.73v8.43h-5.7v4.42h-10.44v3.78l-93.22,79.5h-28.19v17.79h-11.39v13.29h11.39v4.75h4.75v133.86l-8.07,8.07h-59.64l-20.79-39.98-4.82-12.7-5.67-8.76-1.77,1.9-30.45-52.36c3.37-1.1,5.34-2.39,5.34-3.78v-4.46c0-1.74-3.07-3.34-8.19-4.6,0,0,0,0,0,0l30.97-7.81,11.54-2.91h0l-.51-11.9-.12-2.75-.64-3.5h0s.37-2.72.37-2.72l-.63-3.42.39-2.39-.62-3.06.37-2.82-.12-2.91-.25-5.79-6.28-3.66-.05-.82-4.18-1.64-9.54-5.56-6.87-.89-21.56-2.81.25,6.4.05,1.24-.04-1.04-.25-6.6-39.12,13.75h0s3.62-1.28,3.62-1.28l13.74-4.83,12.89-4.53-.4-6.04,16.96-8.57h.32v-2.4s.07-.05.1-.07c.14-.09.2-.26.15-.41-.02-.06-.04-.14-.25-.29v-.83l18.49,18.93,1.92.25,7.51,4.37-47.49-46.51c2.24-.9,4.51-1.75,4.78-1.6.55.29,6.5-2.41,7.48-2.92.99-.51,0-2.88,0-2.88-.55-.29-.44-.15-1.72,0-.81.09-6.62,2.86-10.75,4.86l-1.67-25.52,9.74-1.53,4.83-4.44-4.78-2.38-5.38,3.07-4.71.72-.71-10.85-1.51-.63v-1.35l15.03,2.81.24,3.48v.02l4.91,2.22,9.5,4.3h4.72l-7.53-3.55,7.54,3.55h.43l6.03-7.11-13.67-6.4-5.68,7.44h0,0s5.68-7.44,5.68-7.44l-.03-.02-12.37-1.25,12.35,1.23h.03s13.7,6.42,13.7,6.42l.58-1.75v-9.11l-13.79-7.01h0s-6.13-.73-6.13-.73l-6.26,6.59-41.56-10.77-3.02,10.71,2.6.78-.33,12.98-5.33,3.54,5.19,2.09-.78,30.28c-10.72-38.03-27.55-97.72-32.23-114.23l1.02-.35s1.08-2.03.51-3.6c-.57-1.57-2.54-1.58-2.54-1.58l-.99.22c-.7-.62-1.76-1.3-2.76-1.89-.01-.07-.03-.14-.05-.2-.16-2.59-.76-12.91.04-13.59.53-.46,2.42-7.3,3.54-13.22.52.31.86.52.86.52l5.74,10.19c-.34.32-.61.58-.79.75-.06.06-.1.14-.1.23v7.76h.32l2.71,1.04,4.28,1.64,39.53,70.22,4.81,1.2,1.88.47-2.26-3.96c.14,0,.28,0,.43-.03.9-.12,1.87-.55,2.74-1.21.87-.67,1.54-1.49,1.89-2.33.37-.88.33-1.67-.09-2.22-.86-1.13-3-.89-4.87.54-.83.64-1.48,1.42-1.84,2.22l-.84-1.47c.93-.04,2.03-.45,3.06-1.23,1.87-1.43,2.66-3.43,1.8-4.55-.86-1.13-3-.89-4.86.54-.83.63-1.43,1.38-1.79,2.11l-.75-1.31c.1,0,.21,0,.32-.02.9-.11,1.87-.55,2.74-1.21.87-.67,1.54-1.49,1.89-2.33.37-.88.33-1.67-.09-2.22-.86-1.13-3-.89-4.87.54-.8.61-1.42,1.35-1.78,2.12l-.75-1.31c.11,0,.21,0,.32-.02.9-.11,1.87-.54,2.74-1.21.87-.67,1.54-1.49,1.89-2.33.37-.88.33-1.67-.09-2.22-.86-1.13-3-.89-4.87.54-.83.63-1.43,1.38-1.79,2.11l-.75-1.31c.1,0,.21,0,.32-.02.9-.12,1.87-.55,2.74-1.21.87-.67,1.54-1.49,1.89-2.33.37-.88.33-1.67-.09-2.22-.86-1.13-3-.89-4.86.54-.83.63-1.43,1.38-1.79,2.11l-.75-1.31c.1,0,.21,0,.32-.02.9-.12,1.87-.55,2.74-1.21,1.87-1.43,2.66-3.43,1.8-4.55-.86-1.12-3-.89-4.86.54-.8.61-1.42,1.35-1.78,2.12l-.75-1.31c.1,0,.21,0,.32-.02.9-.12,1.87-.55,2.74-1.21.87-.67,1.54-1.49,1.89-2.33.37-.88.33-1.67-.09-2.22-.86-1.13-3-.89-4.86.54-.83.63-1.43,1.38-1.79,2.11l-.75-1.31c.11,0,.21,0,.32-.02.9-.11,1.87-.54,2.74-1.21.87-.67,1.54-1.49,1.89-2.33.37-.88.33-1.67-.09-2.23-.42-.56-1.18-.79-2.12-.67-.9.11-1.87.54-2.74,1.21-.8.61-1.42,1.36-1.78,2.12l-.75-1.31c.93-.04,2.04-.45,3.06-1.23,1.87-1.43,2.66-3.43,1.8-4.55-.86-1.13-3-.89-4.87.54-.83.63-1.43,1.38-1.79,2.11l-.75-1.31c.11,0,.21,0,.32-.02.9-.12,1.87-.54,2.74-1.21h0c.87-.67,1.54-1.49,1.89-2.33.37-.88.33-1.67-.09-2.23-.86-1.13-3-.89-4.87.54-.8.61-1.42,1.36-1.78,2.12l-.75-1.31c.93-.04,2.04-.45,3.06-1.23.87-.67,1.54-1.49,1.89-2.33.37-.88.33-1.67-.09-2.23-.86-1.12-3-.89-4.86.54-.8.61-1.42,1.36-1.78,2.12l-.75-1.31c.93-.04,2.04-.45,3.06-1.23.87-.67,1.54-1.49,1.89-2.33.37-.88.33-1.67-.09-2.22-.42-.56-1.18-.8-2.12-.67-.9.11-1.87.54-2.74,1.21-.83.63-1.43,1.38-1.79,2.11l-.75-1.31c.93-.04,2.04-.45,3.06-1.23,1.87-1.43,2.66-3.43,1.8-4.55-.42-.56-1.18-.8-2.12-.68-.9.11-1.87.55-2.74,1.21-.8.61-1.42,1.36-1.78,2.12l-.75-1.31c.93-.04,2.04-.45,3.06-1.23,1.87-1.43,2.66-3.43,1.8-4.55-.43-.56-1.18-.8-2.12-.67-.32.04-.64.13-.97.25l4.42-5.07-2.34-1.2c.48-.49,2.22-2.3,2.34-3.19.03-.2-.1-.37-.2-.47-.24-.27-.82-.68-1.61-1.17.64-.8,1.1-1.5,1.1-1.83,0-1.05-9.51-6.06-13.32-7.81-.01-.38-.12-.72-.34-1.01-.86-1.13-3-.89-4.87.54-.7.53-1.25,1.15-1.61,1.76l-.57-.99c.89-.12,1.85-.55,2.71-1.2,1.73-1.32,2.51-3.11,1.95-4.27l2.36-2.72-.84-.43s.03,0,.04,0c.08,0,.16-.03.22-.09.38-.36,2.25-2.23,2.38-3.12.03-.19-.1-.35-.2-.45-.24-.25-.81-.65-1.59-1.12.63-.77,1.09-1.43,1.09-1.75,0-1.21-13.7-7.96-14.65-8.06-1.44-.15-7.5,5.4-8.69,6.51-.06.06-.1.14-.1.22v6.83l-.09.06.09.04v.49h.34c-4.29,9.8-11.74,26.89-12.57,29.04-.61,1.58-5.75,28.75-10.46,54.61l-11.05,43.82.08-.11c-.21.31-.4.64-.57,1.01-.73,1.62-.8,3.26-.27,4.24h0s-.48,59.83-.48,59.83h0c-.1.15-.17.29-.17.29l2.09,1.31.29,1.61-2.14.39-.24,1.36-.51,32.73.79-.6.79-31.92,3.64.73-.07,31.78.36.37c-.32-.33-.65-.63-1.01-.88-.61-.43-1.25-.71-1.85-.71-1.65,0-4.45,2.41-4.45,3.8,0,.09.01.19.02.28.02.35.06.72.15,1.12.08.38.17.76.3,1.16.1.31.21.62.33.93.17.44.36.87.57,1.29.18.37.38.72.58,1.05.24.4.5.77.76,1.09.27.34.55.62.81.84.09.07.17.11.25.16h-.05s-.04.18-.04.55-1.05.46-1.19,1.56.19,2.97,2.12,2.87c1.92-.1,1.31-2.63,1.31-2.8s-.4-.32-.45-.19c-.05.12-.01-.1-.15.62-.14.73-.37.68-.77.71-.4.02-.69-.18-.62-1,.07-.81.9-.87,1.05-1.17.16-.3.04-1.08.04-1.08h-.02c.52-.31,1.1-.96,1.65-1.79.38-.57.76-1.22,1.08-1.89.32-.65.59-1.31.8-1.92.17-.52.3-1.01.36-1.43.06-.43.04-.79-.07-1.03-.04-.09-.1-.19-.15-.29-.14-.27-.31-.55-.51-.83-.21-.3-.46-.59-.72-.88l.15.16.42-32.25.32.07v-1.7l-1.85-1.22v-.78l1.85-.29v-1.17l3.18-57.48.98.49.13.07c1.25.57,3.07-.74,4.06-2.93.99-2.18.78-4.42-.48-4.99l-1.14-.57-.13-.07c-.16-.07-.34-.11-.52-.12l21.82-81.22c5.93,29.87,19.01,95.01,25,118.99.78,3.1,1.47,5.89,2.11,8.42l-.13.06.08,9.22h-.02s2.55.52,2.55.52c3.62,14.09,4.58,16.29,8.4,25.14,0,0-1.17,6.72-1.88,10.51-.72,3.79,2.76,3.65,2.76,3.65,0,0,1.03-.29,2.81,3.46,1.25,2.63,3.27.56,4.37-.9l-.22,1.71.38,3.54h0s-.37,3.21-.37,3.21v2.4l-3.48-.34h-7.91l-4.57,2.22v2.04h0v16.7l1.1,4.46c-1.83.87-2.85,1.83-2.85,2.83v4.46c0,1.47,2.2,2.83,5.96,3.98l-32.74,48.33-2.61-.45-11.29,21.07-3.99,14.62v-14.12h3.8v-13.77h-102.05v-13.56h-66.93v13.56h-7.12v8.54h13.77v56.01h-33.23v-19.94h-48.42v21.36h-69.78l28.48-39.87-132.43-1.42s-4.59,11.84-20.29,17.31v-139.06h36.31v-6.05h59.45v76.08c-1.49,1.51-4.51,4.67-4.51,5.58,0,.98,2.96,6.2,4.51,7.57v35.73h1.19v-36.01c1.22-1.49,4.37-4.5,4.51-6.68.13-2.05-3.38-5.58-4.51-6.66v-75.61h16.61v-8.54h-38.38l-98.51-92.38v-16.57h-13.26l-.09-.34v-5.46h-4.57v-9h-10.56v6.58l-.09,2.42h-5.77v5.81h-13.88v11.3l-74.19,73.44h-30.84v24.21h-11.75v4.27h-8.9v18.16h31.33v85.38l-3.01,3.86h-21.67v-13.56h-66.93v13.56h-7.12v8.54h13.77v36.66c-21.63-.02-43.52-.05-65.12-.08v-31.35h3.8v-13.77h-102.05v-13.56h-14.86v-83.51h36.31v-6.05h77.25v-8.54h-38.38l-98.51-92.38v-16.57h-13.26l-.09-.34v-5.46h-4.56v-9h-10.56v6.58l-.09,2.42h-5.77v5.81h-13.88v11.3l-42.9,42.46-35.79-33.56v-16.57h-13.26l-.09-.34v-5.47h-4.57v-9h-10.56v6.58l-.09,2.42h-5.78v5.81h-13.88v11.3l-74.19,73.44h-30.84v24.21h-38.38l-98.51-92.38v-16.57h-13.26l-.09-.34v-5.47h-4.57v-9h-10.56v6.58l-.09,2.42h-5.77v5.81h-13.88v11.3l-74.19,73.44h-20.56l4.43-107.73-.63-.03,7.46-181.25h-.21s.09-2.24.09-2.24l-43.17-1.78-1.34,32.59,4.58.19-1.18,28.66-4.58-.19-.45,10.93,4.58.19-4.45,108.24-18.22-.75-.87,21.17.84.03-.09.09-9.53,9.41-73.02,72.28h-16.26v42.56h-10.44v3.56h21.12v78.55l-37.74,58.23v-21.51h-55.54v27.06h-17.09v-24.21h-46.99v22.78h-44.86v-53.98l43.43-23.26h-8.54l-34.89,16.83v-37.84h-9.97v42.65l-16.38,7.9v7.83l16.38-8.77v48.64h-57.67v-43.43h14.95v-8.54h-14.95v-10.06h-4.98v10.06h-50.55v-11.39h-53.92v-60.76h9.49v-10.2h68.11v-9.49h-38.07l-63.01-95.2-.05-.21h1.63v-14.24h-16.55v-5.52h-5.7v5.52h-11.04v-5.52h-15.13v5.52h-5.16v14.24h1.09l-24.75,75.47h-15.98v19.94h-20.41v-22.54h-11.39v22.54h-20.94l-63.01-95.2-.05-.21h1.63v-14.24h-16.55v-5.52h-5.7v5.52h-11.04v-5.52h-15.13v5.52h-5.16v14.24h1.09l-24.75,75.47h-15.98v19.94h-20.41v-22.54h-11.39v166.36h-115.82l39.87,68.35h-201.99v-56.35h3.8v-13.77h-102.05v-13.56h-66.93v13.56h-7.12v8.54h13.77v61.57h-62.4v-186.54h-2.52l-19.32-93.22v-126.79h-43.49v10.32h1.35v33.11h-6.51v5.93h6.51v55.65h-14.77v21.37l-21.92,80.33h-23.22v199.83H0v118.19h3999.99v-180.85h-116.77ZM3217.25,280.5l.36,5.52-.57-8.74,4.02,1.18-3.81,2.05ZM3216.66,271.56l-.15-2.27c5.34,1.49,10.59,3.03,14.05,4.16-.91.61-1.87,1.21-2.7,1.71l.16.27-11.37-3.88ZM3234.27,277.56l-1.94-.66c.14-.08,1-.59,1.94-1.21v1.87ZM3234.27,274.93c-1.12.75-2.31,1.44-2.32,1.45l.28.49-3.81-1.3c.58-.35,1.72-1.06,2.91-1.86,1.41.47,2.43.86,2.93,1.12v.1ZM3234.27,273.02v1.15c-.47-.21-1.19-.5-2.3-.89.54-.37,1.03-.74,1.48-1.09l.81.83ZM3233.02,271.73c-.51.39-1.13.83-1.8,1.29-2.62-.88-7.01-2.22-14.37-4.28-.13-.04-.26-.07-.38-.11l-.26-4.04c5.5,1.62,10.83,3.32,14.28,4.54l2.53,2.59ZM3229.45,268.08c-3.53-1.22-8.36-2.73-13.29-4.15l-.66-10.14,13.95,14.29ZM3205.16,187.47c.32-.76.93-1.51,1.74-2.13.97-.74,2.06-1.14,2.92-1.14.55,0,1.01.17,1.28.51.32.41.33,1.04.03,1.75-.32.76-.93,1.52-1.74,2.13-.81.62-1.7,1.01-2.51,1.12-.26.03-.46,0-.67-.04l-1.12-1.96c.03-.08.04-.16.08-.25ZM3204.22,180.84c.97-.74,2.06-1.14,2.92-1.14.55,0,1.01.17,1.28.51.67.88-.11,2.66-1.71,3.88-1.02.78-2.17,1.17-3.05,1.13l-1.22-2.13c.28-.76.9-1.59,1.77-2.26ZM3199.94,178.52c.32-.76.93-1.51,1.74-2.13.97-.74,2.06-1.14,2.92-1.14.55,0,1.01.17,1.28.51.32.42.33,1.04.03,1.75-.32.76-.93,1.51-1.74,2.13-.81.62-1.7,1.01-2.51,1.12-.21.03-.37-.02-.56-.03l-1.19-2.09s.02-.08.04-.12ZM3199.15,171.95c.97-.74,2.06-1.14,2.92-1.14.55,0,1.01.17,1.28.51.32.42.33,1.04.03,1.75-.32.76-.93,1.52-1.74,2.13-.81.62-1.7,1.01-2.51,1.12-.21.03-.37-.02-.56-.03l-1.19-2.08c.28-.76.9-1.59,1.77-2.26ZM3196.61,167.5c.97-.74,2.06-1.14,2.92-1.14.55,0,1.01.17,1.28.51.32.41.33,1.04.03,1.75-.32.76-.93,1.52-1.74,2.13h0c-.81.62-1.7,1.01-2.51,1.12-.21.03-.37-.02-.56-.03l-1.19-2.08c.28-.76.9-1.59,1.77-2.26ZM3192.33,165.19c.32-.76.93-1.52,1.74-2.13.97-.74,2.06-1.14,2.92-1.14.55,0,1.01.17,1.28.51.67.88-.11,2.66-1.71,3.88-.81.62-1.7,1.01-2.51,1.12-.21.03-.37-.02-.56-.03l-1.19-2.09s.02-.08.04-.12ZM3191.53,158.62c.97-.74,2.06-1.14,2.92-1.14.55,0,1.01.17,1.28.51.32.42.33,1.04.03,1.75-.32.76-.93,1.52-1.74,2.13-.81.62-1.7,1.01-2.51,1.12-.21.03-.37-.02-.56-.03l-1.19-2.08c.28-.76.9-1.59,1.77-2.26ZM3187.26,156.3c.32-.76.93-1.52,1.74-2.13.81-.62,1.7-1.01,2.51-1.12.14-.02.27-.03.4-.03.57,0,1.02.18,1.28.52.32.41.33,1.04.03,1.75-.32.76-.93,1.52-1.74,2.13h0c-.81.62-1.7,1.01-2.51,1.12-.21.03-.37-.02-.56-.03l-1.19-2.09s.02-.08.04-.12ZM3186.46,149.73c.97-.74,2.06-1.14,2.92-1.14.55,0,1.01.17,1.28.51.67.88-.11,2.66-1.71,3.88-1.02.78-2.17,1.17-3.05,1.13l-1.21-2.12c.28-.76.9-1.59,1.77-2.26ZM3182.18,147.42c.32-.76.93-1.52,1.74-2.13.97-.74,2.06-1.14,2.92-1.14.55,0,1.01.17,1.28.51.32.42.33,1.04.03,1.75-.32.76-.93,1.52-1.74,2.13h0c-.81.62-1.7,1.01-2.51,1.12-.21.03-.37-.02-.56-.03l-1.19-2.09s.02-.08.04-.12ZM3179.65,142.97c.32-.76.93-1.51,1.74-2.13.97-.74,2.06-1.14,2.92-1.14.55,0,1.01.17,1.28.51.32.42.33,1.04.03,1.75-.31.76-.93,1.51-1.74,2.13-1.02.78-2.17,1.17-3.05,1.13l-1.22-2.13s.02-.08.04-.12ZM3178.85,136.4c.81-.62,1.7-1.01,2.51-1.12.14-.02.27-.03.4-.03.57,0,1.02.18,1.28.52.32.42.33,1.04.03,1.75-.32.76-.93,1.52-1.74,2.13-1.02.78-2.17,1.17-3.05,1.13l-1.21-2.12c.28-.76.9-1.6,1.78-2.26ZM3174.57,134.08c.32-.76.93-1.52,1.74-2.13.81-.62,1.7-1.01,2.51-1.12.14-.02.27-.03.4-.03.57,0,1.02.18,1.28.52.67.88-.11,2.66-1.71,3.88-1.02.78-2.17,1.17-3.05,1.13l-1.22-2.13s.02-.08.04-.12ZM3177.83,112.87c.23.17.41.31.49.41-.05.17-.27.49-.58.9l.09-1.31ZM3177.64,115.64c.74.47,1.24.83,1.39,1.04-.12.47-.9,1.43-1.62,2.21l.23-3.25ZM3165.28,90.23c.23.16.41.3.48.39-.05.16-.26.47-.57.86l.09-1.25ZM3165.09,92.88c.73.45,1.23.8,1.37,1-.12.44-.89,1.36-1.6,2.11l.22-3.11ZM3108.35,288.77l.88-58.74.79.39-.79,58.52h.05c-.5-.11-.86-.18-.92-.17ZM3109.46,289l.15.03,1.09-58.3-.1-.05c.97.37,2.25-.34,3.23-1.69.32.21.66.39,1.02.47.29.07.62.09.95.1l-3.2,60.23h.02c-.95-.24-2.24-.58-3.15-.8ZM3111.27,222.2l.03-.02,4.68-17.99c-1.32,7.48-2.41,13.81-3.08,17.96l-.09-.05c-.46-.21-.99-.16-1.53.09ZM3116.64,232.45l-3.19,57.58c-.12-.03-.26-.07-.42-.11l3.23-57.87c.14.2.31.36.52.47l-.14-.07ZM3117.25,197.04l-6.56,25.5.06-.04c-.3.21-.59.48-.87.79l.08-.1,8.47-32.71c-.4,2.23-.8,4.42-1.18,6.56ZM3151.29,90.18l-1.6,1.14c-1.2-.94-2.41-1.31-3.01-1.43,2.2-1.72,4.41-3.3,5.06-3.33,0,0,.01,0,.02,0,.27,0,.92.21,1.79.56v4.22l-2.17-1.11-.09-.05ZM3155.87,111.98c.19-.18.38-.36.57-.54l.9,1.59c-.59.49-1.1.93-1.47,1.25v-2.3ZM3160.85,110.25l-.05-.09c.07,0,.13,0,.21-.02-.05.04-.1.07-.15.11ZM3161.17,110.81c.39-.29.76-.56,1.11-.79-.36.36-.67.75-.9,1.15l-.2-.36ZM3165.95,113.54c-.09.06-.18.12-.27.18l-.07-.03c.11-.07.23-.14.34-.22v.07ZM3165.95,112.86c-.07.05-.13.11-.19.17-.2.16-.41.29-.62.42l-.43-.22-.1-.05-1.35.96c-.06,0-.12,0-.19.01l-1.42-2.49c.34-.68.9-1.34,1.62-1.89.38-.29.78-.52,1.18-.7.34.08.86.28,1.5.54v3.25ZM3165.95,108.96c-.18-.07-.35-.14-.51-.2.11-.02.23-.09.34-.1.06,0,.11,0,.17-.01v.31ZM3166.92,120.88c.28-.76.9-1.6,1.78-2.26.97-.74,2.06-1.14,2.92-1.14.55,0,1.01.17,1.28.51.25.33.3.77.18,1.27l-5.04,3.57-1.12-1.95ZM3170.24,126.69l1.58.61c-.41.12-.8.17-1.15.15l-.43-.76ZM3170.95,127.93c.49-.02,1.02-.14,1.56-.37l.33.12c-.49.48-.88,1.02-1.14,1.56l-.75-1.31ZM3176.29,126.39c.14-.02.27-.03.4-.03.57,0,1.02.18,1.28.52.67.88-.11,2.66-1.71,3.88-1.02.78-2.17,1.17-3.05,1.13l-1.22-2.13s.02-.08.04-.12c.25-.61.71-1.22,1.3-1.76l.32.12.77-.89c.62-.37,1.26-.65,1.86-.72ZM3176.72,119.59l-1.99-1.02c.57-.6,1.43-1.51,2.24-2.44l-.24,3.46ZM3166.59,106.5c3.18,1.56,8.36,4.45,10.63,5.95l-.15,2.12c-2.4-1.43-6.05-3.32-8.89-4.64,0-.41-.11-.78-.34-1.08-.28-.37-.72-.59-1.26-.66v-1.69ZM3166.59,108.7c.37.07.69.2.88.45.12.16.18.35.21.56-.39-.18-.75-.33-1.09-.48v-.52ZM3166.59,109.88c.34.15.69.31,1.08.48-.04.17-.09.35-.17.53-.19.47-.51.93-.91,1.36v-2.38ZM3166.59,112.94c.61-.57,1.08-1.21,1.35-1.86.07-.18.12-.35.16-.51,2.85,1.34,6.53,3.26,8.82,4.63-.77.92-1.76,2.01-2.71,3l.23.22-.1-.05-.74.52c.02-.44-.08-.85-.33-1.18-.86-1.12-3-.89-4.87.54-.83.63-1.43,1.38-1.79,2.11l-.22-.38,1.39-1.59c.27-.15.54-.33.8-.53,1.87-1.43,2.66-3.43,1.8-4.55-.42-.56-1.18-.79-2.12-.67-.54.07-1.11.27-1.67.55v-.23ZM3166.59,114.03v-.28c.58-.33,1.17-.58,1.73-.65.14-.02.27-.03.4-.03.57,0,1.02.18,1.28.52.4.53.28,1.37-.22,2.23l-3.51-1.79h.32ZM3165.59,106.03c.12.05.23.11.36.17v1.98c-.08,0-.15,0-.23,0-.36.05-.73.16-1.11.3-.18-.05-.33-.08-.44-.09.77-.75,1.26-1.59,1.42-2.36ZM3163.22,108.59h0c-.89.68-1.87,1.05-2.68,1.12l-.73-1.29c2.02-1.72,3.72-2.98,4.24-2.98,0,0,.02,0,.03,0,.18.02.55.16,1.06.38-.15.88-.84,1.95-1.91,2.77ZM3160.73,105.33c.97-.74,2.06-1.14,2.92-1.14.55,0,1.01.17,1.28.51.11.14.16.3.2.48-.51-.22-.87-.36-.99-.37-.75-.08-2.74,1.41-4.66,3.04l-.36-.63c.33-.65.88-1.33,1.61-1.89ZM3159.47,116.82l-3.6,2.55v-4.25c.54-.47,1.15-.99,1.79-1.52l1.81,3.22ZM3160.68,104.14c-.81.62-1.7,1.01-2.51,1.12-.07,0-.11-.01-.17,0l-1.41-2.48s0,0,0,0l3.11,1.19,2.88-3.31c.27.95-.5,2.43-1.9,3.5ZM3154.18,84.14c3.14,1.5,8.26,4.25,10.5,5.69l-.15,2.03c-2.85-1.64-7.47-3.92-10.36-5.12v-2.6ZM3154.18,91.34v-3.97c2.88,1.22,7.51,3.53,10.2,5.09-.76.88-1.74,1.92-2.68,2.87l.45.42c.56-.57,1.45-1.48,2.27-2.4l-.25,3.44c0,.09.04.17.11.23l-3.87-1.98-.09-.05-5.83,4.13-1.53-2.67,3.27-3.75-2.68-1.37h.61ZM3143.59,89.38c3.35-3.11,7.23-6.25,8.07-6.25.01,0,.02,0,.03,0,.26.03.94.3,1.86.72v2.64c-.87-.34-1.53-.55-1.81-.55,0,0-.02,0-.02,0-1.33.06-6.38,4.19-8.11,5.64v-2.2ZM3143.59,95.64v-3.25c.73-.62,1.59-1.32,2.48-2.03-.37.85-1.18,2.69-2.23,5.1l-.24.17ZM3169.38,279.75v-4.04c.19-.1.43-.21.65-.31.33,1.29.64,2.51.93,3.65l-1.58.7ZM3169.37,275v-2.25c.17.69.34,1.36.51,2.01-.18.08-.37.18-.51.24ZM3145.92,136.03h0l29.71,118.47-29.71-118.47ZM3192.2,281.28s-.47-1.65-1.29-4.58l1.5-.67-.21,5.25ZM3192.66,269.4l-3.39,1.51c-.32-1.15-.67-2.37-1.03-3.67,1.69-.7,3.26-1.32,4.58-1.81l-.16,3.97ZM3187.58,200.72l1.56.47,4.26.8c-1.42.95-2.55,2.62-2.55,2.62l4.23,3.53-.3,7.52-3.06,1.71-3.94-1.2,1.53-1.84-2.19-1.1.45-12.49ZM3185.51,257.54l1.38-37.95,7.61,3.07-1.46,37.23c-1.72.58-3.87,1.44-6.18,2.43-.43-1.52-.88-3.11-1.35-4.78ZM3193.01,260.56l-.17,4.2c-1.39.5-3.01,1.14-4.78,1.87-.33-1.19-.68-2.42-1.05-3.71,2.25-.95,4.33-1.78,5.99-2.35ZM3175.8,335.68l-1.98.69,1.98-.69h0ZM200.78,538.23h-11.39v-170.4h11.39v170.4ZM245.38,142h32.89v33.11h-32.89v-33.11ZM245.38,181.04h32.89v55.65h-32.89v-55.65ZM245.38,258.07h32.89v57.07h-32.89v-57.07ZM230.41,258.07h10.35v57.07h-7.46v23.26h-24.81l21.92-80.33ZM278.63,538.23h-69.3v-144.06h49.25v-26.34h20.05v170.4ZM296.19,538.23h-9.02v-177.29h9.02v177.29ZM287.17,351.68v-13.29h-3.32v-23.26h-.95v-35.62l14.95,72.17h-10.68ZM427.42,538.23h-52.21v-61.57h18.51v5.22h33.7v56.35ZM450.2,538.23h-15.19v-56.35h15.19v56.35ZM514.75,538.23h-53.16v-56.35h53.16v56.35ZM983.22,326.05h-31.7l-20.14-78.33,51.84,78.33ZM855.82,469.87h-40.82v-124.12h40.82v124.12ZM882.13,230.64h24.88l-21.15,78.31v-2.84h-28.48l24.75-75.47ZM902.1,469.87h-37.02v-124.12h37.02v124.12ZM910.53,469.87h-3.45v-43.43h3.45v43.43ZM943.39,469.87h-30.16v-43.43h30.16v43.43ZM943.39,406.51h-36.31v-60.76h36.31v60.76ZM928.62,326.05v-19.94h-11.93v-11.39h-12.1v11.39h-9.26v19.94h-8.2l25.77-95.41h7.17l1.69,2.55,23.87,92.86h-17.02ZM954.67,469.87h-4.16v-43.43h4.16v43.43ZM968.2,469.87h-10.68v-43.43h10.68v43.43ZM1010.99,469.87h-39.94v-43.43h39.94v43.43ZM1010.99,417.9h-29.97v-11.39h-30.5v-60.76h9.49v-10.2h50.98v82.35ZM1190.6,326.05h-31.7l-20.14-78.33,51.84,78.33ZM1031.57,469.87h-9.19v-43.43h9.19v43.43ZM1063.2,469.87h-26.65v-43.43h14.95v-8.54h-14.95v-10.06h-4.98v10.06h-9.19v-72.15h40.82v124.12ZM1089.51,230.64h24.88l-21.15,78.31v-2.84h-28.48l24.75-75.47ZM1109.48,469.87h-37.02v-124.12h37.02v124.12ZM1150.78,469.87h-6.74v-43.43h6.74v43.43ZM1150.78,406.51h-14.77v19.94h5.33v43.43h-26.86v-124.12h36.31v60.76ZM1136,326.05v-19.94h-11.93v-11.39h-12.1v11.39h-9.26v19.94h-8.2l25.77-95.41h7.17l1.69,2.55,23.87,92.86h-17.02ZM1185.47,469.87h-27.58v-43.43h27.58v43.43ZM1199,469.87h-10.68v-43.43h10.68v43.43ZM1262.37,469.87h-60.52v-43.43h60.52v43.43ZM1537.2,496.93h-37.74v-15.67l37.74-57.41v73.08ZM1615.8,213.68l8.29-8.23,3.2-3.17,1.11-1.09.79.03-.91,1.61-45.11,80.02h-37.25l69.88-69.18ZM1579.54,342.19l-22.41,34.57v-34.57h22.41ZM1595.58,497.08l-4.98-.15h-33.46v-103.41l33.74-51.33h4.71v154.89ZM1635.45,469.16h-27.85l23.02-35.36h4.83v35.36ZM1635.45,404.76h-23.5v29.04h8.62l-15.74,24.52v-116.13h7.12v-16.14h23.5v78.71ZM1634,282.86h-33.11l35.03-72.16,1.15-2.37-3.07,74.54ZM1637.29,202.83l-2.4,4.94-36.45,75.09h-12.74l43.42-77.03,2.53-4.49,5.69.23-.05,1.27ZM1655.87,33.03l26.58,1.09-1.18,28.66-26.58-1.09,1.18-28.66ZM1654.24,72.62l26.58,1.09-4.45,108.25-26.58-1.09,4.45-108.25ZM1649.54,202.06l20.49.84-4.49,109.1,2.72.11v5.11h-11.75v4.27h-8.9v-38.64h-1.4l3.32-80.79ZM1647.62,433.8h24.49l-24.49,31.4v-31.4ZM1678.95,469.16h-28.71l27.58-35.36h1.13v35.36ZM1678.95,404.76h-29.42l29.42-45.2v45.2ZM1678.95,342.85l-31.33,48.81v-52.01h31.33v3.2ZM1819.65,226.1l97.18,91.12h-31.68l-58.09-78.71-5.46-7.39-1.79-2.44-1.91-2.59h1.76ZM1773.29,222.68v3.42h4.41l-36.52,66.92h-38.94l71.05-70.33ZM1700.66,339.65h44.88l-44.88,57.54v-57.54ZM1707.37,469.16h-6.7v-35.36h6.7v35.36ZM1751.21,469.16h-13.2l13.2-16.41v16.41ZM1751.21,446.16l-18.51,23h-18.33v-35.36h36.85v12.36ZM1751.21,404.76h-50.55v-.26l50.55-64.81v65.07ZM1743.69,293.02l32.27-59.12-17,59.12h-15.27ZM1780.53,226.1h23.32l-36.51,66.92h-6.1l19.29-66.92ZM1773.29,469.16h-9.61v-31.89l9.61-11.94v43.83ZM1773.29,418.74l-9.61,11.94v-91.03h9.61v79.09ZM1835.58,469.16h-56.6v-50.91l56.6-70.33v121.24ZM1835.58,341.33l-56.6,70.33v-72.01h2.14v-7.83h54.47v9.51ZM1769.01,317.22v-22.68l37.35-68.45h5.22l28.73,91.12h-71.29ZM1813.88,226.1h1.29l1.85,2.49,2.27,3.06,1.83,2.46,3.77,5.14,57.55,77.97h-39.81l-28.73-91.12ZM1940.6,440.68h-16.02v28.48h-79.74v-137.34h36.31v-6.05h56.6v13.88h2.85v101.03ZM1969.08,440.68h-6.5l6.5-8.33v8.33ZM1969.08,425.03l-12.21,15.65h-15.09v-101.03h27.29v85.38ZM2236.7,222.47l97.18,91.12h-31.68l-58.09-78.71-5.46-7.39-1.79-2.44-1.91-2.59h1.76ZM2190.34,219.05v3.42h4.41l-28.99,53.12-16.71-15.67,41.29-40.87ZM2147.5,261.46l17.18,16.11-6.44,11.81h-3.5l-14.96-20.27,7.73-7.65ZM2134.98,336.02h27.61l-27.61,35.4v-35.4ZM2123.96,289.38l-1.11-3.52,15.34-15.19,13.81,18.71h-28.04ZM2109.78,226.1l36.1,33.85-7.44,7.37-21.26-28.81-5.46-7.39-1.79-2.44-1.91-2.59h1.76ZM2105.3,226.1l1.85,2.49,2.27,3.06,1.83,2.46,3.77,5.14,21.86,29.62-14.76,14.61-18.09-57.39h1.29ZM2121.67,289.38h-2.37l1.81-1.79.56,1.79ZM2063.43,222.68v3.42h4.41l-36.52,66.92h-38.94l71.05-70.33ZM1990.8,339.65h44.88l-44.88,57.54v-57.54ZM2041.35,404.83l-2.2,9.51-35.6-1.42,29.9,18.51-21.36,39.87h-21.3v-66.79l50.55-64.81v65.13ZM2033.83,293.02l32.27-59.12-17,59.12h-15.27ZM2070.66,226.1h23.32l-36.51,66.92h-6.1l19.29-66.92ZM2063.42,366.83l-4.33,2.89h-5.28v-30.07h9.61v27.18ZM2096,369.72h-26.88v-30.07h2.14v-3.63h24.74v33.7ZM2085.32,289.38v24.21h-11.75v3.63h-14.42v-22.68l37.35-68.45h5.22l18.64,59.12-4.2,4.16h-30.84ZM2125.72,455.34l-8.01-8.01v-46.45l8.01-10.27v64.73ZM2125.72,383.29l-8.01,10.27v-35.68l8.01-9.95v35.36ZM2125.72,341.33l-8.01,9.95v-15.27h8.01v5.31ZM2168.26,469.95c-6.69-.02-12.31-.03-16.73-.04l16.73-20.78v20.83ZM2168.26,442.53l-22.02,27.36c-3.9-.01-5.98-.02-5.98-.02l-5.28-5.28v-85.86l33.29-42.68v106.47ZM2176.01,289.38h-15.27l5.6-10.25,9.94,9.32-.27.93ZM2167.42,277.14l25.59-46.88-16.05,55.83-9.54-8.94ZM2178.76,287.77l18.82-65.3h23.32l-36.51,66.92h-3.91l-1.72-1.61ZM2186.06,313.59v-15.96l17.02,15.96h-17.02ZM2230.74,328.19v36.71l-34.71,43.13v-72.01h2.14v-7.83h32.57ZM2190.34,470c-3.34,0-6.55-.02-9.61-.02v-36.34l9.61-11.94v48.3ZM2190.34,415.11l-9.61,11.94v-91.03h9.61v79.09ZM2216.47,470.07c-7.22-.02-14.05-.03-20.43-.05v-55.4l34.71-43.13v40.2h-20.92v13.56h-7.12v8.54h13.77v36.27ZM2252.64,470.15c-9.82-.02-19.22-.04-28.1-.06v-36.28h6.21v16.92h1.19v-16.92h11.12v5.22h9.59v31.13ZM2252.64,411.7h-20.71v-41.68l20.71-25.73v67.41ZM2252.64,337.7l-20.71,25.73v-35.24h20.71v9.51ZM2206.29,313.59l-20.23-18.97v-3.71l37.35-68.45h5.22l28.73,91.12h-51.07ZM2230.93,222.47h1.29l1.85,2.49,2.27,3.06,1.83,2.46,3.77,5.14,57.55,77.97h-39.81l-28.73-91.12ZM2276.75,470.2c-5.04-.01-9.99-.02-14.86-.03v-31.15h14.86v31.18ZM2299.53,470.24c-5.13-.01-10.2-.02-15.19-.03v-31.19h15.19v31.22ZM2364.09,470.36c-18.12-.03-35.95-.06-53.16-.09v-31.24h53.16v31.34ZM2500.41,470.5c-2.62,0-5.26,0-7.91,0l7.91-10.14v10.14ZM2500.41,453.04l-13.61,17.45c-12.66,0-25.57-.02-38.6-.03v-36.67h18.51v5.22h33.7v14.02ZM2508.01,439.02h3.34l-3.34,4.29v-4.29ZM2523.19,470.51c-5,0-10.07,0-15.19,0v-19.88l9.05-11.6h6.14v31.49ZM2665.79,222.47l97.18,91.12h-31.68l-58.09-78.71-5.46-7.39-1.79-2.44-1.91-2.59h1.76ZM2619.44,219.05v3.42h4.41l-36.52,66.92h-38.94l71.05-70.33ZM2546.81,336.02h44.88l-44.88,57.54v-57.54ZM2587.75,470.47c-2.49,0-5.01,0-7.57.01l7.57-9.41v9.4ZM2587.75,454.47l-12.89,16.01c-8.98,0-18.35.02-28.05.02v-31.48h40.94v15.45ZM2597.36,425.26h-50.55v-24.38l50.55-64.81v89.19ZM2589.84,289.38l32.27-59.12-17,59.12h-15.27ZM2626.67,222.47h23.32l-36.51,66.92h-6.1l19.29-66.92ZM2619.43,470.4c-3.11,0-6.31.02-9.61.03v-36.78l9.61-11.94v48.7ZM2619.43,415.11l-9.61,11.94v-91.03h9.61v79.09ZM2681.73,469.44c-1.48.2-3.01.35-4.63.44-4.67.25-23.69.41-51.98.5v-55.76l56.6-70.33v125.14ZM2681.73,337.7l-56.6,70.33v-72.01h2.14v-7.83h54.47v9.51ZM2615.16,313.59v-22.68l37.35-68.45h5.22l28.73,91.12h-71.29ZM2660.02,222.47h1.29l1.85,2.49,2.27,3.06,1.83,2.46,3.77,5.14,57.55,77.97h-39.81l-28.73-91.12ZM3026.93,489.81h-52.21v-56.01h18.51v5.22h33.7v50.79ZM3088.64,509.49l11.97.22v.03h-11.97v-.25ZM3232.95,419.08c.91-.05,1.64-.79,1.64-1.71v-5.6c0-.95-.77-1.73-1.73-1.73h-.09l-.37-18.88c1.03-.42,1.6-.88,1.6-1.35,0-.11-.03-.21-.08-.32.06.1.09.21.09.32v-1.22c0-.48-.61-.94-1.68-1.37l-.1-5.18,6.2,9.01h-2.85v-4.14l-.7-1.02v39.11l-3.39-.3,1.57.14-.11-5.77ZM3233.04,388.77c.41.22.7.45.85.68-.14-.23-.44-.46-.85-.68ZM3247.93,465.23h-1.46l-.15,1.46h-1.31v1.53h-.66v3.74l5.99,10.59.22.39-18.35-32.46,2.87-5.55-1.37-.05,15.14-1.17-1.51.15.58,21.37ZM3248.47,422.1h1.84l2.44,4.49-2.14-.19.32.03-2.45-4.33ZM3253,443.39l8.67,14.92-7.35,16.29v-6.37h-2.67v-1.53l-1.09-.22v-1.24h-.95l-.75-21.52,4.15-.32ZM3267.34,460.53l.9,1.55h-2.58l-.2-.34.56-1.21h1.31ZM3266.5,459.52l.11-.25.14.25h-.26ZM3267.75,465.66h2.58l.9,1.55h-2.58l-2.39-4.12h2.58l.9,1.55h-2.57l.59,1.01ZM3290.84,495.53h-3.5l-3.01,2.82h-4.84l-.13-4.54h-5.74v4.54h-41.91l-.52-.81h-.92v-2.96c.85.34,1.75.53,2.68.53,2.4,0,4.61-1.21,6.32-3.21l51.59-.57v4.19ZM3226.72,371.62l-3.25,4.94.19,8.9c-1.1-.13-2.26-.24-3.48-.34v-3.56l6.53-9.95ZM3223.98,359.21h0s0,0,0,0c.11.01.21.03.32.04-.11-.01-.22-.03-.33-.04ZM3223.83,392.93l.68,31.17-4.33-.38v-30.42c1.29-.11,2.5-.23,3.65-.37ZM3226.9,444.63h0l-3.44-.18,3.44.18ZM3229.05,456.6l6.34,11.28c-.78-.28-1.6-.45-2.45-.45-5.1,0-9.3,5.42-9.82,12.37l-1.1.02s-.35.62-.35,1.97.35,1.97.35,1.97h1.21s0,0,0,0h-.86l1.46,4.3-3.95.04-3.61-6.84,12.77-24.67ZM3221.99,492.1l4.75-.05c.98,1.11,2.12,1.97,3.37,2.49h-6.71v3.02h-4.96v-4.72h3.94l-.39-.73ZM3242.81,481.08l2.2,3.91v2.89l-3.4.03c.77-1.97,1.21-4.23,1.21-6.64,0-.06,0-.13,0-.19ZM3261.38,450.27l.9,1.55h-2.56l-.9-1.55h2.56ZM3258.23,449.26l-.9-1.55h2.56l.9,1.55h-2.56ZM3262.87,452.84l.72,1.23-.14.32h-2.24l-.9-1.55h2.56ZM3262.99,455.4l-.52,1.16-.67-1.16h1.19ZM3264.68,463.47l13.99,24.05,1.75-.02-.77-1.32h2.61l.78,1.34-29.57.28,11.2-24.33ZM3275.2,478.49h2.59l.9,1.55h-2.59l.59,1.01h2.6l.9,1.55h-2.6l.59,1.01h2.6l.9,1.55h-2.61l-5.36-9.25h2.59l-.59-1.01h-2.58l-.9-1.55h2.59l2.39,4.12h-2.59l.59,1.01ZM3271.62,472.35l-.9-1.55h2.59l.9,1.55h-2.59ZM3283.94,486.04l-5.42-9.35,3.45-2.44,1.97,3.22v8.56ZM3278.07,475.93l-5.55-9.57,3.28-2.21,5.74,9.41-3.47,2.38ZM3272.72,469.78h-2.59l-.9-1.55h2.59l.9,1.55ZM3264.38,452.32l-5.44-9.38,3.74-.29,3.49,5.71-1.79,3.96ZM3259.29,446.69h-2.56l-.9-1.55h2.55l.9,1.55ZM3255.25,444.13l-.5-.87,2.44-.19.61,1.06h-2.55ZM3242.23,402.82v2.01h-6.65v-2.01h6.65ZM3235.57,402.08v-2.02h6.65v2.02h-6.65ZM3242.23,405.57v2.02h-6.65v-2.02h6.65ZM3242.23,408.32v2.02h-6.65v-2.02h6.65ZM3242.23,411.08v2.02h-6.65v-2.02h6.65ZM3242.23,413.83v2.01h-6.65v-2.01h6.65ZM3242.23,416.59v2.02h-6.65v-2.02h6.65ZM3242.23,419.34v2.02h-6.65v-2.02h6.65ZM3242.23,422.1v2.02h-6.65v-2.02h6.65ZM3242.23,424.85v.81l-6.95-.61.3.03v-.22h6.65ZM3242.23,399.32h-6.65v-2.02h6.65v2.02ZM3235.57,396.57v-2.01h5.26l1.38,2.01h-6.64ZM3235.57,393.82v-2.02h3.36l1.39,2.02h-4.75ZM3201.86,353.89h-.01l30.17-7.4-30.16,7.4ZM3207.31,358.31c-.33,0-.65,0-.97,0,.33,0,.65,0,.97,0,0,0,0,0,0,0h0ZM3211.35,422.93l-13.65-1.21-2.77-.34,16.42,1.54ZM3222.38,444.39l-11.21,27.18-15.05-28.53,26.27,1.35ZM3206.02,485.24l-4.23,8.47,2.41-.16v4h-3.07v-4.7l1.09-.02,1.98-3.95-3.07.05v-11.65l4.89,7.96ZM3158.41,469.87v4.49l-12.88-28.99v-4.93l34.05,1.75-11.55,27.68h-9.62ZM3114.27,507.07l-5.11.03,3.31-.05,1.8-.03v.05ZM3271.34,449.01l-.83-1.36,20.58,33.62h-.24v6.18l-6.05.06v-9.95l-15.18-24.8,1.73-3.75ZM3275.4,463.49l-3.28,2.18-4.71-8.12,1.88-4.07,6.12,10.02ZM3268.19,443.87l-1.71,3.78-3.1-5.06,3.84-.3.96,1.57ZM3266.61,425.67v2.15l-12.91-1.14h0l-3.15-5.68h-7.58l-.02,1.1h4.48l2.44,4.24-6.9-.61h0l-.02-3.63-.13-24.63-.6-.88h0s18.69,27.17,18.69,27.17v3.44l5.69.61v-2.15l-32.52-55.37h0l32.52,55.37ZM3228.62,333.74l16.1,9.59,18.8,4.86h.03s-.03,0-.03,0l.08.02h0s-18.76-4.85-18.76-4.85h0s-.11-.03-.11-.03l-16.1-9.59-38.55,11.34-2.5.73.78.49h0s-.77-.49-.77-.49l41.04-12.07ZM3187.81,385.72l.09-13.86c2.19.26,4.51.47,6.95.63v12.51c-2.61.18-4.98.43-7.04.72ZM3194.85,393.42v14l-3.14,4.78-1.9-1.57-2.18.56.12-18.49c2.08.29,4.46.54,7.09.73ZM3194.85,421.33v.05l-9.12-1.11,9.12,1.06ZM3184.1,449.55l12.49,20.33h-20.98l8.49-20.33ZM3184.1,347.88h0s-4.68,1.73-4.68,1.73l4.68-1.73ZM3176.67,350.63h0s-.12-2.1-.12-2.1l-.36-6.19.48,8.29ZM3180.46,380.85l-.09,6.71c-.61.33-.97.68-.97,1.04v1.21s0,0,0,0c0,.36.33.7.93,1.03l-.29,22.56-2.93,7.4-27.5,4.2,30.85-44.16ZM3144.71,425.75l3.52-.54-9.66,1.48,6.14-.94ZM3145.32,440.44l-1.52-.08-10.34-.53,11.86.61ZM3125.48,489.67l15.21-40.94,16.52,36.66v3.49l-.52.74-29.56.46-1.88.35.22-.77ZM3061.11,439.02h53.16v54.11l-.86,3.15.86-.1v3.43h-7.6v7.5l-4.38.02-1.24,1.6-12.41-.18v-18.75h-27.53v-50.79ZM3049.72,489.81h-15.19v-50.79h15.19v50.79ZM3389.57,457.06h-4.75l-13.29,13.29v-131.01h18.04v117.72ZM3636.16,237.72l101.57,83.59h-24.62l-76.94-82.88v-.71ZM3626.42,239.19h1.59l15.91,82.12h-6.88l-46.16-37.99,35.54-44.12ZM3564.85,303.51h-16.63l16.55-21.52,9.33,10.05-9.24,11.48ZM3573.4,339.34l-26.24,26.01v-24.48l1.54-1.53h24.7ZM3567.11,278.94l4.84-6.29,10.68,8.79-6.13,7.61-9.39-10.11ZM3588.5,286.27l42.57,35.04h-24.62l-24.72-26.63,6.77-8.41ZM3616.66,239.19l-31.65,39.3-10.75-8.85,23.41-30.45h18.99ZM3592.02,231.56v7.63h.87l-21.55,28.04-8.27-6.8,28.95-28.86ZM3560.36,263.11l8.65,7.12-4.52,5.88-8.26-8.89,4.12-4.11ZM3529.5,237.72l27.92,22.98-3.76,3.75-24.15-26.02v-.71ZM3530.15,244.7l20.82,22.42-13.81,13.76-7.01-36.18ZM3533.81,303.51h-13.97l11.71-11.67,2.26,11.67ZM3485.36,229v10.19h.87l-49.45,64.33h-38.79l87.37-74.52ZM3414.73,457.06h-15.67v-117.72h15.67v117.72ZM3438.94,457.06h-9l9-8.92v8.92ZM3438.94,442.8l-14.39,14.26h-.97v-40.35h15.36v26.08ZM3438.94,412.21h-15.36v-23.51h15.36v23.51ZM3438.94,382.65h-15.36v-19.58h15.36v19.58ZM3438.94,358.45h-15.36v-19.11h15.36v19.11ZM3491.01,239.19h18.99l-51.81,64.33h-16.63l49.45-64.33ZM3444.64,416.71h20.62l-20.62,20.44v-20.44ZM3466.47,457.06h-6.44l6.44-6.38v6.38ZM3466.47,445.33l-11.83,11.72h-10.01v-14.56l21.83-21.64v24.48ZM3466.47,412.21h-21.83v-23.51h21.83v23.51ZM3466.47,382.65h-21.83v-19.58h21.83v19.58ZM3466.47,358.45h-21.83v-19.11h21.83v19.11ZM3519.76,239.19h1.59l9.33,48.16-16.22,16.16h-46.52l51.81-64.33ZM3499.7,457.06h-26.58v-12.97l26.58-26.35v39.31ZM3499.7,412.4l-26.58,26.35v-24.48l26.58-26.35v24.48ZM3499.7,382.57l-26.58,26.35v-69.58h26.58v43.23ZM3540.52,457.06h-5.32l5.32-5.28v5.28ZM3540.52,446.44l-10.72,10.62h-18.71v-50.61l29.43-29.17v69.15ZM3540.52,371.94l-29.43,29.17v-24.48l29.43-29.17v24.48ZM3540.52,342.11l-29.43,29.17v-31.94h29.43v2.77ZM3541.55,303.51l-3.51-18.14,15.52-15.47,8.6,9.26-18.71,24.34h-1.89ZM3577.54,457.06h-30.38v-11.86l10.7-10.6h19.68v22.47ZM3577.54,422.17h-7.15l7.15-7.09v7.09ZM3577.54,409.74l-12.54,12.43h-12.53v12.42l-5.3,5.26v-69.15l30.38-30.11v69.16ZM3574.61,303.51l4.71-5.85,21.95,23.64h-23.73v-17.79h-2.94ZM3597.2,457.06h-12.06v-22.47h12.06v22.47ZM3647.79,457.06h-39.63v-22.47h39.63v22.47ZM3647.79,422.17h-62.66v-14.62l62.66-62.11v76.72ZM3647.79,340.1l-62.66,62.11v-67.61h62.66v5.51ZM3636.81,244.7l71.12,76.6h-56.28l-14.84-76.6ZM3695.97,482.69h-27.77v-25.63h-11.87v-22.47h39.63v48.1Z"/>
  </g>
</svg>