<?xml version="1.0" encoding="UTF-8"?>
<svg id="Layer_2" data-name="Layer 2" xmlns="http://www.w3.org/2000/svg" viewBox="0 0 3999.99 692.32">
  <defs>
    <style>
      .cls-1 {
        fill: #2b252e;
        stroke-width: 0px;
      }
    </style>
  </defs>
  <g id="_ÎÓÈ_1" data-name="—ÎÓÈ_1">
    <path class="cls-1" d="M1595.29,147.05l5.46,5.51h-13.09l6.51-5.26v.14h1.11v-.4ZM1144.88,185.5h-12.06l5.39-7.4v.03h.85l5.81,7.37ZM724.3,152.43l5.6,5.65h-13.42l6.67-5.39v.15h1.14v-.41ZM304.94,133.64h-15.07l6.29-6.35v.46h1.28v-.16l7.5,6.05ZM568.45,129.13v21.4h-6.66l6.66-21.4ZM548.78,154.38l-48.2-41.76-3.46-2.27.73.48,67.56,15.65-.11.62-2.04,1.13-7.81,23.88-6.67,2.27ZM3866.02,75.21v-28.81l8.97,28.81h-8.97ZM3873.01,45.2l-2.74-1.53-.15-.83,90.97-21.08.34-.22-4.01,2.63-64.9,56.22-8.99-3.04-10.51-32.15ZM3991.29,211.16v24.96l-28.36,2.28-11.36-13.62s-3.4-14.74-5.66-27.6c-2.28-12.84-5.68-8.7-5.68-8.7l-6.8,8.7c-6.82,8.72-10.22,27.6-10.22,27.6h-34.5V94.26l3.34-4.42,79.38-71.46,2.9.62s-.32,4.1-.16,4.56c.16.46,3.04-.3,3.04-.3l-3.34-9.9-11.3,7.42-92.6,21.22h-2.06v2.28l-2.22,1.08-.3,29.86-5.78,1.82v13.26h10.5v3.2l9.06,2.74v128.54h-11.54v-48.78h-18.16s-1.14-20.42-18.16-20.42-17.02,21.56-17.02,21.56h-11.34v48.78h-24.96v-36.3h-49.92v-23.84h-79.42V43.82h-24.38l-18.72,18.72h-18.16l-18.16-18.14h-27.22v152.78h-29.5v-64.3h-36.3v43.12l-38.58,21.18v51.42h-45.38v-111.18h-95.3v45.38h-99.84v-109.12h-92.76v159.14h-43.26V73.68h-130.08v33.04h-17.9v-33.04h-107.3v88.98h-52.28v-88.98h-42v38.02h-34.8v71.1h-31.76v-57.48h-102.86v55.22h-44.64l-41.6,41.6h-223.5v-38.2l-17.02-17.02h-42.36v21.94h-105.52v51.06l-42.72-42.74h-28.74V31.54h-16.64v186.06h-46.9v-20.42h-40.08v31.76l-17.4-17.4h-25.72v-66.56l-16.64-36.3h-37.82l-7.56,35.56v52.94h-22.68v-21.56h-25.34l-21.56,21.56v65.32h-49.44l-10.12-10.1v-59.18l-14.56-14.58h-61.64l-11.72,11.72v62.78l-15.9,15.9v33.28h-27.22v-16.66h-12.5V118.82h79.6v28.18l-6.82,5.56h-.7l1.12,3.18h12.68l2.36-3.18h-1.5l-5.84-5.64h-.18v-28.1h18.38l8.92-3.18h-95.84v-16.82h-12.8v-14.1l-7.8-5v33.64h-7.26v-12.72h-33v12.72h-4.88v8.18h45.14v164.12h-10.84v-16.62h-37.82v-40.86h-52.96v21.18h-96.8v36.3h-36.3l-9.08-9.06h-1.9v-118.9h31.48v-4.24h-3.68v-13.9h-23.26v13.9h-4.54v-39.62l-6.8,10.6v15.12h-10.5v13.9h-106.36l-5.1,4.24h6.52v19.78l-6.06,8.3h13.48l-6.58-8.24v-19.84h114.6v118.9h-26.1v-45.38h-71.1v30.24h-45.38v-45.38h-25.72l-24.2,42.36h-10.58v-84.72h-12.1v-13.6h-36.32v16.64h-13.6v93.78h-22.7v-19.66h-27.22v-71.1l-40.84-25.72v31.76h-31.78v-41.58h-117.98v126.3h-40.86v-19.66h-65.62V79.18h81.6v73.2l-7,5.7h-.72l1.16,3.26h12.98l2.44-3.26h-1.54l-6-5.8h-.18v-73.1h18.86l9.12-3.26h-98.24v-17.24h-13.12v-14.44l-8-5.14v34.48h-7.44v-13.04h-33.84v13.04h-5v8.4h46.28v168.9h-7.42v19.66h-66.82v-104.4l6.74-2.04v-2.38h7.8v-9.84l-4.3-1.36-.22-22.18-1.64-.78v-1.7h-1.54l-68.78-15.76-8.38-5.52-2.5,7.36s2.16.56,2.26.22c.12-.34-.1-3.38-.1-3.38l2.14-.46,58.96,53.06,2.48,3.3v105.86h-16.86v-36.3l-36.3-11.36h-10.16v-26.96l1.4-3.04-1.4-.96v-79.64h-.22v79.52l-1.18,1.24,1.2,3.32v26.52h-55.44l-9.84,9.84h-23.98V48.16h51.96v-9.42h-5.62v-14.66h-38v14.66h-8.34V0l-8.98,5.76v16.22h-14.76v19.38h-110.36l10.26,3.66h21.18v82.12h-.2l-6.74,6.5h-1.72l2.72,3.66h14.6l1.28-3.66h-.8l-7.86-6.42V45.02h91.66v187.7h-4.12v28.74h-74.12v-107.4h-57.48v16.64h-39.34v68.08h-19.66v-13.62h-24.2v-27.98h-36.32v-52.94H0v548.08h3999.99V210.8l-8.7.36Z"/>
  </g>
</svg>